<?xml version="1.0" ?><svg data-name="Layer 45" height="48" id="Layer_45" viewBox="0 0 24 24" width="48" xmlns="http://www.w3.org/2000/svg"><title/><path d="M19.83333,11.66667c0,1.94223.55144,4.0741-.49477,5.5447a9.046,9.046,0,0,1-.87114,1.04743,16.36313,16.36313,0,0,1-6.38409,1.44954,21.09344,21.09344,0,0,1-6.34318-1.24192,9.05147,9.05147,0,0,1-.9033-1.01682,14.2319,14.2319,0,0,1-.67019-5.49126c0-2.6655,1.125-4.875,1.83333-6.66665a9.01976,9.01976,0,0,1,1.87321-1.2919C9.33333,4,10.51253,4,12,4a21.55643,21.55643,0,0,1,4.99827.51439A9.0382,9.0382,0,0,1,18,5.29171C18.79167,7.54167,19.83333,9.00118,19.83333,11.66667Z" style="fill:#4eba94"/><path d="M14.25037,8.08331c2.7901,3.011,5.33295,7.29913,4.90955,9.35388A8.96776,8.96776,0,0,0,17.88019,5.19635a15.05516,15.05516,0,0,0-3.728,2.7879C14.185,8.01892,14.21753,8.04791,14.25037,8.08331Z" style="fill:#e3edf0"/><path d="M12.44356,5.96655A9.6584,9.6584,0,0,1,16.884,4.44714,8.96422,8.96422,0,0,0,7.57214,4.17c.493.4255,2.12749.58549,4.11328,1.79962A.7225.7225,0,0,0,12.44356,5.96655Z" style="fill:#e3edf0"/><path d="M9.875,8.08331c.03455-.03668.06946-.06793.10406-.10394A21.35438,21.35438,0,0,0,7.04968,5.60724a1.39216,1.39216,0,0,0-1.12683-.23187,8.98253,8.98253,0,0,0-.86279,12.3548C4.28668,15.8197,6.91809,11.2262,9.875,8.08331Z" style="fill:#e3edf0"/><path d="M18.621,18.08118c.36438-1.96417-3.56665-5.50244-6.55811-8.18536l-.00018-.00018-.00019.00018C9.09137,12.5257,4.9549,16.44537,5.58887,18.312a8.979,8.979,0,0,0,13.0321-.23083Z" style="fill:#e3edf0"/></svg>